<svg width="136" height="202" viewBox="0 0 136 202" fill="none" xmlns="http://www.w3.org/2000/svg">
<path d="M0 0H28C43.464 0 56 12.536 56 28V202C25.0721 202 0 176.928 0 146V0Z" fill="#E0E0E0"/>
<path d="M56 55H28C12.536 55 0 42.464 0 27V0H28C43.464 0 56 12.536 56 28V55Z" fill="#747677"/>
<path d="M56 202C25.072 202 -1.09593e-06 176.928 -2.44784e-06 146L108 146C123.464 146 136 158.536 136 174L136 202L56 202Z" fill="#C72831"/>
<path d="M0 146H56V202C25.0721 202 0 176.928 0 146Z" fill="#D9D9D9" fill-opacity="0.17"/>
</svg>
