<svg width="204" height="170" viewBox="0 0 204 170" fill="none" xmlns="http://www.w3.org/2000/svg">
<path d="M57.8412 168.446C30.6209 165.259 7.47404 144.048 1.34908 116.678C-1.00865 106.143 -0.213134 91.4376 3.24323 81.6655C10.3971 61.4394 26.1348 46.0759 46.2148 39.7156C54.0401 37.2369 56.1357 37.007 70.9405 37.0037L87.1163 37L103.544 52.0001C112.579 60.2501 121.596 68.4759 123.58 70.2797L127.188 73.5592L96.3982 72.9027C69.2769 72.3244 65.0226 72.443 60.6896 73.8979C48.2989 78.0587 40.1796 88.7804 40.1796 100.982C40.1796 109.29 42.5043 115.518 47.7866 121.358C53.1713 127.313 59.608 130.237 69.302 131.132H76.5H81C84.5006 127.734 85.5426 123.742 87.1163 125C91.4313 128.449 131.246 166.77 131.546 167.588C131.743 168.123 120.086 168.537 103.382 168.589C87.7072 168.638 72.619 168.809 69.8529 168.97C67.0867 169.131 61.6815 168.896 57.8412 168.446Z" fill="#E41C22"/>
<path d="M145.708 0.575241C172.928 3.76192 196.075 24.9729 202.2 52.3426C204.558 62.8783 203.762 77.5834 200.306 87.3555C193.152 107.582 177.414 122.945 157.334 129.305C149.509 131.784 147.413 132.014 132.609 132.017L116.433 132.021L100.005 117.021C90.9696 108.771 81.9536 100.545 79.9692 98.7413L76.3614 95.4618L107.151 96.1183C134.272 96.6966 138.526 96.578 142.859 95.123C155.25 90.9623 163.369 80.2406 163.369 68.0393C163.369 59.7305 161.045 53.5034 155.762 47.6625C150.378 41.7084 143.941 38.7844 134.247 37.8887H127.049H122.549C119.048 41.287 118.006 45.2788 116.433 44.021C112.118 40.5724 72.3032 2.25076 72.0026 1.43303C71.8061 0.898422 83.4633 0.484116 100.167 0.432144C115.842 0.383392 130.93 0.211838 133.696 0.0506744C136.462 -0.110336 141.868 0.125473 145.708 0.575241Z" fill="#AA0514"/>
</svg>
